<?xml version="1.0" encoding="UTF-8"?>
<svg version="1.1" viewBox="0 0 2048 1695" width="720" height="596" xmlns="http://www.w3.org/2000/svg">
<path transform="translate(0)" d="m0 0h2048v1695h-2048z" fill="#F9F9EE"/>
<path transform="translate(589,814)" d="m0 0h29l19 2 16 4v1l-32 2-34 8-24 9-19 9-14 8-13 9-12 9-16 15-9 10-6 7-11 16-11 19-8 18-8 24-6 28-1 8v43l3 20 6 25 7 21 9 20 11 19 12 17 9 11 23 23-5-1-11-6-19-13-11-9-13-12-10-10-9-11-11-15-11-19-8-16-8-22-6-26-2-12-1-11v-23l3-23 7-28 8-20 8-16 8-14 12-16 9-11 15-15 14-11 14-10 18-10 19-9 27-9 25-5z" fill="#96AB65"/>
<path transform="translate(500,639)" d="m0 0h45l24 4 21 6 20 8 16 8 14 8 14 10 11 9 13 12 10 10 10 13 7 10 8 13 13 25 8 21 1 6-4-4-10-18-10-14-9-11-21-21-17-13-18-11-17-9-27-10-26-6-18-2h-40l-22 3-27 7-24 9-21 11-14 9-14 10-11 9-20 20-8 10-11 15-12 21-9 19-13 39-1-4v-13l3-23 6-28 7-21 15-31 9-14 13-17 14-15 8-8 11-9 14-10 17-10 19-9 24-8 21-5z" fill="#96AB65"/>
<path transform="translate(568,547)" d="m0 0h24l24 3 18 4 18 6 11 5 12 6 18 11 14 10 11 10 6 5 7 8 10 11 9 12 8 13 13 25 9 25 6 27 2 22v27l-2 20h-2l-5-34-4-15-8-23-6-14-13-22-13-17-9-10-18-18-17-13-13-8-14-8-13-6-19-7-17-5-26-5-17-2h-30l-32 5-19 5-20 7-23 11-19 12-17 13-16 15-12 13-7 8-1-2 9-17 12-18 11-14 12-13 12-12 14-11 11-8 15-9 22-11 16-6 26-7 22-3z" fill="#96AB65"/>
<path transform="translate(749,447)" d="m0 0h25l25 2 27 6 21 7 16 7 17 9 14 9 11 8 11 9 14 13v2h2l11 14 6 7 11 17 10 19 8 20 5 17 4 23 1 8v34l-5 30-3 11-5 16-5 11-8 16-9 15-14 19-13 15-11 11-11 9-16 12-13 8-25 14-3-1 13-10 10-8 17-17 9-11 10-13 12-20 9-19 7-19 5-18 5-31v-38l-6-35-6-21-6-16-11-23-12-19-9-12-11-13-5-6-2-1v-2l-4-2-11-10-19-14-17-10-16-8-21-8-22-6-24-5v-1z" fill="#96AB65"/>
<path transform="translate(518,736)" d="m0 0h32l21 3 15 3 24 7 20 8 21 11 21 13 11 9v3l-9-6-18-8-26-8-26-5-12-1h-36l-15 2-24 5-27 9-25 12-17 10-6 5-13 10-10 10-8 7-7 7-7 8-4 5-6 8-10 16-9 17-6 15-6 17-6 29-2 17v29l3 26 6 26 6 17-1 2-7-10-8-16-8-19-7-22-5-23-2-15v-45l3-20 8-30 9-22 10-19 11-16 9-11 11-12 8-8 17-13 18-11 16-8 15-6 19-6 30-5z" fill="#96AB65"/>
<path transform="translate(909,458)" d="m0 0 8 1 26 7 19 7 16 8 16 9 10 7 12 9 10 9 8 7 7 8 9 10 14 20 9 16 7 15 7 21 6 28 2 18v20l-3 25-6 26-6 18-10 21-12 20-11 14-9 11-17 17-20 15-21 13-21 10-22 8-29 7-11 2h-6l2-2 23-8 16-8 11-6 16-11 11-9 12-11 11-11 9-11 10-14 9-15 8-16 11-27 7-30 3-26v-21l-2-25-5-23-9-27-9-20-14-23-10-13-11-13-13-13-11-9-13-10-21-13-23-11z" fill="#96AB65"/>
<path transform="translate(656,497)" d="m0 0h11l24 2 16 3 21 6 18 7 19 10 15 10 14 11 14 13 9 11 7 8 12 17 12 22 8 20 6 21 4 20 2 21v17l-2 25-6 27-8 24-10 22-11 19-10 15-4 3 2-5 11-27 6-19 5-28 1-9v-34l-3-21-5-23-7-20-8-18-11-19-11-15-11-13-10-11-8-7-9-8-16-12-13-8-16-8-15-7-26-8-25-5-15-2h-35l-27 4-21 5-23 8-4 1 5-5 20-12 14-7 26-10 27-7 22-3z" fill="#96AB65"/>
<path transform="translate(674,868)" d="m0 0h8l-2 2-20 5-20 8-15 8-15 10-14 11-15 14-8 9-12 16-10 16-7 12-5 11-6 16-8 30-2 15v34l2 17 5 22 5 16 9 22 10 18 12 17 11 13 16 16 11 9 14 10 22 13 3 1v2l-8-2-24-9-22-10-20-12-13-10-12-11-17-17-12-16-8-13-10-19-7-19-5-19-3-21-1-17 2-24 4-25 8-24 10-21 16-24 14-16 12-12 10-8 15-11 23-13 13-5 10-4 21-6 27-4z" fill="#96AB65"/>
<path transform="translate(1450,1020)" d="m0 0h19l11 4 10 7 7 8 5 11 1 5v17l-4 13-6 8-7 7-11 6-9 2h-14l-11-3-9-5-7-6-6-9-4-13v-16l4-13 8-11 9-7 9-4z" fill="#FAFAEF"/>
<path transform="translate(832,1022)" d="m0 0h39l10 3 10 6 8 11 3 9 1 8v10l-3 12-6 10-9 8-13 5-13 2h-27z" fill="#FAFAEF"/>
<path transform="translate(1544,1022)" d="m0 0h36l12 3 9 5 8 9 4 10 1 7v14l-2 10-6 11-8 7-11 5-16 3h-27z" fill="#FAFAEF"/>
<path transform="translate(1115,1010)" d="m0 0 14 1v70h12l-1 10-10 1-1 23h-12v-23h-50l-7-1v-9l9-12 32-42 12-17z" fill="#96AB65"/>
<path transform="translate(747,1011)" d="m0 0 14 1 26 60 15 35 3 6v3h-12l-7-15-8-19-50-1-3 9-11 25-1 1h-11l3-9 12-27 13-30 14-33z" fill="#96AB65"/>
<path transform="translate(1532,1012)" d="m0 0h49l10 2 12 5 8 6 7 8 6 13 2 8v19l-4 13-6 10-7 7-13 8-14 4-12 1h-38zm12 10v84h27l16-3 14-7 7-8 5-11 1-7v-14l-2-11-6-10-8-7-8-4-10-2z" fill="#96AB65"/>
<path transform="translate(820,1012)" d="m0 0h50l13 3 13 7 9 9 7 14 2 10v19l-5 15-6 8-5 5-10 7-13 5-16 2h-39zm12 10v84h27l17-3 12-6 7-7 6-12 2-9v-10l-2-12-5-10-6-7-14-7-5-1z" fill="#96AB65"/>
<path transform="translate(1450,1010)" d="m0 0h18l13 3 11 6 10 9 7 10 5 14 1 5v14l-3 12-6 12-9 10-11 7-10 4-10 2h-13l-14-3-14-7-10-9-7-11-4-12-1-6v-13l4-15 6-11 11-11 8-5 12-4zm0 10-10 3-11 7-7 8-5 10-2 8v16l4 13 8 11 8 6 8 4 9 2h14l11-3 10-6 9-9 5-10 2-8v-17l-3-10-6-10-9-8-12-6-4-1z" fill="#96AB65"/>
<path transform="translate(1643,1012)" d="m0 0h65v9l-31 1h-22v35h48v9l-1 1h-47v39h55v9l-13 1h-54z" fill="#96AB65"/>
<path transform="translate(932,1012)" d="m0 0h64v9l-53 1v35h48v9l-1 1h-47v39h55l1 9-1 1h-67v-100z" fill="#96AB65"/>
<path transform="translate(1179,1010)" d="m0 0h18l11 4 6 5 4 6 2 6v9l-4 9-6 6v2l9 7 5 7 2 6v14l-4 10-9 10-10 5-9 2h-13l-16-4-10-6-1-5 3-5 5 1 12 6 3 1h20l8-4 6-7 2-5v-13l-3-6-6-5-5-2-24-1-1-5 1-5 21-2 6-3 4-5 2-8-3-8-5-4-4-2h-15l-10 3-7 4-3-1-3-6 1-3 12-6z" fill="#96AB65"/>
<path transform="translate(1349,1010)" d="m0 0h18l12 3 13 7-2 6-4 4-8-5-10-4-9-1-13 1-11 4-9 7-7 9-5 12-1 13 2 12 4 10 9 10 14 7 4 1h22l13-4 7-4h2l2 7v4l-11 5-17 4h-15l-16-4-12-6-8-7-7-11-5-16v-19l4-13 4-8 9-10 9-7 12-5z" fill="#96AB65"/>
<path transform="translate(1040,1011)" d="m0 0h3v105h-10l-1-1-1-89-15 8h-3l-1-9 9-6 14-7z" fill="#96AB65"/>
<path transform="translate(1116,1024)" d="m0 0h1v57h-41l1-4 26-36 12-16z" fill="#FAFAEF"/>
<path transform="translate(752,1024)" d="m0 0 3 1 18 42v4h-40l1-5 11-26 6-15z" fill="#FAFAEF"/>
<path transform="translate(800,1198)" d="m0 0h13l6 3 4 7v8l-3 6-6 5-5 1h-8l-2-2v-27z" fill="#FAFAEF"/>
<path transform="translate(1242,1067)" d="m0 0h46v10h-46z" fill="#96AB65"/>
<path transform="translate(997,1194)" d="m0 0h2l1 6v19h4v3h-4v8l-2 2-2-1v-8h-18l-2-2 8-12 11-14z" fill="#96AB65"/>
<path transform="translate(755,1194)" d="m0 0 4 1 5 10 10 25-2 2-3-3-5-10h-15l-6 12h-3l1-5 10-24z" fill="#96AB65"/>
<path transform="translate(797,1194)" d="m0 0h16l7 3 5 6 2 5v8l-3 7-5 5-7 3h-15l-2-2v-34zm3 4-1 1v27l2 2h8l7-2 6-7 1-3v-8l-4-7-6-3z" fill="#96AB65"/>
<path transform="translate(854,1194)" d="m0 0h16v4h-17v13h16v3l-15 1v12h17v4h-21l-1-1v-35z" fill="#96AB65"/>
<path transform="translate(894,1193)" d="m0 0 5 3 8 11v2l4-4 8-11h3l-2 5-8 11 1 4 11 16v2l-5-2-11-15-11 15-5 2 2-5 10-14-2-5-8-11z" fill="#96AB65"/>
<path transform="translate(1033,1194)" d="m0 0h6l6 4 2 4-1 5-1 4 4 5v6l-5 7-4 2h-9l-6-4v-3l10 3 5-1 3-3 1-6-2-4-9-1-1-3 8-1 2-3-1-5-1-1h-8l-6 1 2-4z" fill="#96AB65"/>
<path transform="translate(953,1194)" d="m0 0h2v37h-3l-1-5-1-26-5 2 1-4z" fill="#96AB65"/>
<path transform="translate(996,1198)" d="m0 0 1 3-1 18h-14l2-5 7-9z" fill="#FAFAEF"/>
<path transform="translate(756,1199)" d="m0 0 3 3 4 10v3l-13 1 2-9z" fill="#FAFAEF"/>
</svg>
